<svg width="728" height="143" viewBox="0 0 728 143" fill="none" xmlns="http://www.w3.org/2000/svg">
<path d="M197.08 119V35.875H208.955V109.262H266.668V119H197.08ZM344.285 89.6687V91.0937H277.191C277.982 98.0604 281.03 103.365 286.335 107.006C291.639 110.648 298.566 112.469 307.116 112.469C313.132 112.469 318.278 111.558 322.553 109.737C326.907 107.917 330.074 105.462 332.053 102.375L342.86 102.85C340.643 108.392 336.447 112.706 330.272 115.794C324.176 118.881 316.457 120.425 307.116 120.425C294.37 120.425 284.316 117.694 276.953 112.231C269.591 106.69 265.91 98.575 265.91 87.8875C265.91 77.2792 269.551 69.2042 276.835 63.6625C284.197 58.1208 293.895 55.35 305.928 55.35C318.278 55.35 327.739 58.2 334.31 63.9C340.96 69.5208 344.285 78.1104 344.285 89.6687ZM305.928 63.3062C298.012 63.3062 291.48 65.0479 286.335 68.5312C281.268 72.0146 278.26 77.1208 277.31 83.85H333.122C332.805 77.5167 330.193 72.5292 325.285 68.8875C320.455 65.1667 314.003 63.3062 305.928 63.3062ZM395.234 55.35C404.813 55.35 412.176 57.6854 417.321 62.3562C422.546 66.9479 425.159 73.875 425.159 83.1375V119H413.996V86.7C413.996 71.975 406.594 64.6125 391.79 64.6125C383.082 64.6125 376.313 66.9875 371.484 71.7375C366.655 76.4875 364.24 82.9396 364.24 91.0937V119H352.959V56.775H363.29V73.2812C365.823 67.5812 369.821 63.1875 375.284 60.1C380.746 56.9333 387.396 55.35 395.234 55.35ZM500.413 31.6H511.575V119H501.363V104.275C498.671 109.5 494.555 113.498 489.013 116.269C483.55 119.04 477.138 120.425 469.775 120.425C458.85 120.425 450.023 117.535 443.294 111.756C436.644 105.977 433.319 98.0208 433.319 87.8875C433.319 77.7542 436.644 69.7979 443.294 64.0187C450.023 58.2396 458.85 55.35 469.775 55.35C484.421 55.35 494.634 60.1792 500.413 69.8375V31.6ZM472.744 111.756C481.373 111.756 488.221 109.579 493.288 105.225C498.355 100.871 500.888 95.0917 500.888 87.8875C500.888 80.6833 498.355 74.9042 493.288 70.55C488.221 66.1958 481.373 64.0187 472.744 64.0187C464.036 64.0187 457.148 66.1958 452.082 70.55C447.015 74.9042 444.482 80.6833 444.482 87.8875C444.482 95.0917 447.015 100.871 452.082 105.225C457.148 109.579 464.036 111.756 472.744 111.756ZM561.825 55.35C564.517 55.35 567.723 55.6271 571.444 56.1812V66.275C567.169 65.8 563.567 65.5625 560.638 65.5625C544.25 65.5625 536.057 75.2208 536.057 94.5375V119H524.775L524.894 56.775H535.225V73.2812C537.442 67.5021 540.807 63.0687 545.319 59.9812C549.911 56.8937 555.413 55.35 561.825 55.35ZM611.038 55.35C622.2 55.35 630.632 57.4875 636.332 61.7625C642.111 65.9583 645 72.0937 645 80.1687V119H634.669V104.75C631.898 109.658 627.544 113.498 621.607 116.269C615.748 119.04 608.663 120.425 600.35 120.425C590.85 120.425 583.765 118.802 579.094 115.556C574.502 112.231 572.207 107.917 572.207 102.612C572.207 96.8333 574.977 92.4396 580.519 89.4312C586.061 86.4229 594.532 84.5229 605.932 83.7312L633.719 81.95V77.9125C633.719 73.7167 631.819 70.2333 628.019 67.4625C624.219 64.6917 618.559 63.3062 611.038 63.3062C604.625 63.3062 599.321 64.2958 595.125 66.275C590.93 68.2542 588.357 71.1437 587.407 74.9437H576.719C577.511 68.2937 580.994 63.3854 587.169 60.2187C593.423 56.9729 601.38 55.35 611.038 55.35ZM603.082 112.469C612.661 112.469 620.142 110.608 625.525 106.887C630.988 103.087 633.719 98.2187 633.719 92.2812V88.9562L607.238 90.6187C591.325 91.7271 583.369 95.5667 583.369 102.137C583.369 105.225 584.992 107.719 588.238 109.619C591.563 111.519 596.511 112.469 603.082 112.469ZM678.654 35.875H687.56V119H676.279V48.1062L652.41 60.6937V49.7687L678.654 35.875ZM705.481 119V104.987H718.663V119H705.481Z" fill="url(#paint0_linear_81_32)"/>
<path d="M36.5439 134.729C17.5632 124.569 3.74215 105.784 0.386719 83.5776L36.5439 61.7329V134.729ZM68.9248 3.74951C106.985 3.74951 138.249 35.0141 138.249 73.0747C138.249 93.5269 129.433 111.934 115.464 124.702V28.2642H59.0029L0 65.6597C3.74334 31.0367 33.3676 3.74952 68.9248 3.74951Z" fill="url(#paint1_linear_81_32)"/>
<defs>
<linearGradient id="paint0_linear_81_32" x1="430.304" y1="42.6331" x2="426.292" y2="124.893" gradientUnits="userSpaceOnUse">
<stop stop-color="white"/>
<stop offset="1" stop-color="#999999"/>
</linearGradient>
<linearGradient id="paint1_linear_81_32" x1="37.1552" y1="8.5286" x2="121.547" y2="127.009" gradientUnits="userSpaceOnUse">
<stop stop-color="#86FFCC"/>
<stop offset="1" stop-color="#114730"/>
</linearGradient>
</defs>
</svg>
